<?xml version="1.0" standalone="no"?><!DOCTYPE svg PUBLIC "-//W3C//DTD SVG 1.1//EN" "http://www.w3.org/Graphics/SVG/1.1/DTD/svg11.dtd"><svg t="1659258233523" class="icon" viewBox="0 0 1024 1024" version="1.1" xmlns="http://www.w3.org/2000/svg" p-id="5307" xmlns:xlink="http://www.w3.org/1999/xlink" width="200" height="200"><defs><style type="text/css"></style></defs><path d="M737.28 798.72H286.72c-33.792 0-61.44-27.648-61.44-61.44V286.72c0-33.792 27.648-61.44 61.44-61.44h450.56c33.792 0 61.44 27.648 61.44 61.44v450.56c0 33.792-27.648 61.44-61.44 61.44zM286.72 307.2v409.6c0 11.264 9.216 20.48 20.48 20.48h409.6c11.264 0 20.48-9.216 20.48-20.48V307.2c0-11.264-9.216-20.48-20.48-20.48H307.2c-11.264 0-20.48 9.216-20.48 20.48z" p-id="5308"></path></svg>